<?xml version="1.0" encoding="UTF-8" standalone="no"?>
<!DOCTYPE svg PUBLIC "-//W3C//DTD SVG 1.1//EN" "http://www.w3.org/Graphics/SVG/1.1/DTD/svg11.dtd">
<svg xmlns="http://www.w3.org/2000/svg" version="1.1" viewBox="0 0 536 307">
<g stroke-width="2.00" fill="none" stroke-linecap="butt">
<path stroke="#f1f494" vector-effect="non-scaling-stroke" d="
  M 210.87 59.15
  C 215.23 54.46 208.99 49.35 205.22 53.20
  C 182.32 76.57 182.45 112.60 205.20 136.08
  Q 207.31 138.25 210.00 136.88
  C 213.65 135.04 212.68 132.07 210.38 129.50
  C 191.80 108.76 191.99 79.46 210.87 59.15"
/>
<path stroke="#f1f494" vector-effect="non-scaling-stroke" d="
  M 315.34 56.75
  A 1.03 1.01 -63.9 0 0 315.61 57.56
  C 333.43 76.38 336.52 100.13 323.19 122.68
  Q 322.01 124.68 315.86 131.40
  A 1.02 0.99 -24.8 0 0 315.60 132.07
  C 315.55 137.76 320.34 138.79 323.71 135.15
  C 345.66 111.47 345.10 77.90 323.50 53.96
  Q 321.83 52.11 319.75 51.97
  Q 315.93 51.72 315.34 56.75"
/>
<path stroke="#f1f494" vector-effect="non-scaling-stroke" d="
  M 302.93 63.45
  Q 301.68 65.50 303.27 67.31
  C 314.99 80.56 318.41 97.00 309.81 112.94
  C 308.01 116.28 305.08 119.57 302.67 122.85
  A 1.02 1.00 59.3 0 0 302.49 123.59
  C 303.35 129.58 307.78 129.03 311.02 125.45
  C 327.15 107.63 326.57 81.01 310.65 63.43
  C 308.15 60.67 305.15 59.81 302.93 63.45"
/>
<path stroke="#f1f494" vector-effect="non-scaling-stroke" d="
  M 219.82 128.15
  A 1.03 1.01 61.3 0 0 220.65 128.40
  C 225.25 127.71 226.92 124.28 223.85 120.75
  C 211.91 107.03 209.90 89.96 219.32 74.33
  Q 220.25 72.80 225.04 66.96
  A 1.00 0.98 67.2 0 0 225.27 66.38
  C 225.56 60.42 220.74 59.66 217.40 63.36
  C 200.34 82.24 201.03 110.83 219.82 128.15"
/>
<path stroke="#f1f494" vector-effect="non-scaling-stroke" d="
  M 236.93 77.24
  C 241.11 72.16 234.62 67.83 231.37 71.10
  C 218.64 83.91 218.69 102.93 230.04 116.64
  C 234.63 122.19 241.57 117.17 236.83 111.84
  C 227.43 101.27 228.12 87.94 236.93 77.24"
/>
<path stroke="#f1f494" vector-effect="non-scaling-stroke" d="
  M 289.11 74.14
  A 1.01 1.00 -55.2 0 0 289.29 75.18
  Q 306.55 94.38 289.82 113.52
  A 0.98 0.95 -25.6 0 0 289.57 114.19
  Q 289.66 120.45 295.89 118.79
  A 0.97 0.97 0.0 0 0 296.38 118.50
  Q 304.18 109.88 306.41 98.45
  Q 306.45 98.21 306.38 97.97
  C 306.02 96.77 306.45 95.34 306.43 94.48
  Q 306.12 81.69 297.76 72.31
  C 294.47 68.62 291.01 69.34 289.11 74.14"
/>
<path stroke="#f1f494" vector-effect="non-scaling-stroke" d="
  M 263.34 81.94
  C 250.74 72.18 231.87 86.05 238.06 100.68
  C 242.91 112.11 252.23 120.63 261.32 128.72
  Q 263.69 130.83 266.16 128.85
  C 274.71 122.00 292.64 105.32 290.84 93.14
  C 288.96 80.42 275.22 74.81 264.51 81.98
  A 1.00 1.00 0.0 0 1 263.34 81.94"
/>
<path stroke="#8099d0" vector-effect="non-scaling-stroke" d="
  M 109.82 248.64
  C 96.45 248.17 89.90 239.97 87.16 227.49
  C 83.43 210.47 87.40 186.81 109.25 185.77
  C 118.73 185.32 124.77 191.76 129.50 199.07
  A 1.00 0.99 60.0 0 0 130.79 199.42
  C 135.30 197.13 134.06 186.19 130.95 183.45
  A 1.07 1.04 -19.1 0 0 130.44 183.21
  C 120.80 181.70 111.80 179.48 102.06 181.12
  C 78.31 185.13 69.76 210.96 76.15 231.82
  C 82.93 253.95 104.99 258.09 124.81 252.07
  C 130.50 250.34 133.17 246.82 134.20 241.20
  C 135.25 235.49 130.78 237.87 129.09 239.86
  C 123.79 246.07 117.48 248.90 109.82 248.64"
/>
<path stroke="#8099d0" vector-effect="non-scaling-stroke" d="
  M 226.70 184.46
  C 227.61 179.35 210.82 181.22 208.05 181.62
  Q 206.14 181.90 207.46 183.30
  C 213.04 189.17 212.92 195.47 213.15 204.69
  Q 213.41 214.52 212.81 224.35
  C 212.08 236.51 209.65 247.55 196.08 248.56
  C 184.05 249.46 175.21 243.44 174.59 230.72
  Q 173.60 210.46 174.27 193.00
  C 174.41 189.28 175.80 186.88 178.56 184.56
  C 184.63 179.43 161.64 180.94 158.94 181.21
  C 155.14 181.60 154.50 184.09 158.00 185.80
  C 163.01 188.24 162.69 193.11 162.91 199.00
  C 163.31 210.11 163.01 221.19 163.61 232.34
  C 164.38 246.44 174.62 253.16 187.68 254.18
  C 194.18 254.69 201.75 254.81 207.49 251.23
  Q 218.58 244.29 218.87 230.99
  Q 219.26 212.90 219.56 194.81
  C 219.65 189.82 222.35 188.14 226.33 185.08
  A 1.04 1.03 76.1 0 0 226.70 184.46"
/>
<path stroke="#8099d0" vector-effect="non-scaling-stroke" d="
  M 306.29 238.68
  C 306.23 242.61 306.74 246.89 302.58 249.07
  Q 300.62 250.10 299.25 251.35
  Q 297.81 252.67 299.72 253.07
  C 306.18 254.43 313.38 253.94 319.95 254.06
  Q 330.83 254.27 335.62 253.44
  C 352.88 250.47 364.18 237.05 365.04 219.42
  C 366.20 195.31 352.01 180.93 328.25 180.81
  Q 316.35 180.74 300.57 181.79
  Q 297.45 182.00 298.36 183.96
  C 299.05 185.42 301.60 186.06 302.86 186.60
  Q 305.13 187.57 305.50 190.01
  C 307.84 205.46 306.53 223.02 306.29 238.68"
/>
<path stroke="#8099d0" vector-effect="non-scaling-stroke" d="
  M 248.94 184.56
  C 252.64 187.14 255.36 186.94 255.78 192.50
  Q 256.50 202.17 256.29 213.94
  C 256.14 222.04 256.39 235.33 255.10 246.09
  A 1.02 1.00 -15.6 0 1 254.71 246.77
  C 254.02 247.28 242.92 253.34 251.09 253.69
  Q 261.71 254.16 272.29 254.13
  Q 276.95 254.11 274.74 250.75
  A 1.06 1.04 79.9 0 0 274.15 250.33
  Q 267.86 248.71 267.78 241.77
  Q 267.44 215.43 267.87 198.75
  C 268.04 192.30 267.03 187.68 273.43 184.38
  C 274.79 183.68 275.95 182.01 273.53 181.42
  C 270.00 180.57 266.15 181.36 263.16 181.21
  C 262.69 181.19 242.63 180.17 248.94 184.56"
/>
<path stroke="#8099d0" vector-effect="non-scaling-stroke" d="
  M 413.34 183.30
  Q 412.34 184.38 411.85 185.77
  C 409.65 191.98 407.81 198.56 405.34 204.56
  Q 398.07 222.20 391.12 239.97
  C 389.32 244.59 387.23 247.29 383.28 249.77
  Q 380.22 251.69 383.48 252.28
  Q 391.28 253.70 399.17 253.07
  Q 400.24 252.99 400.94 252.30
  A 1.01 1.01 0.0 0 0 400.98 250.92
  L 398.65 248.32
  Q 396.59 246.02 397.35 243.09
  Q 398.77 237.55 401.38 232.49
  C 403.04 229.29 404.35 228.97 407.75 228.82
  C 415.24 228.51 426.83 226.59 429.82 232.93
  Q 432.73 239.11 434.02 244.84
  A 1.12 1.10 48.8 0 1 433.99 245.37
  Q 433.09 248.21 431.00 250.37
  A 0.97 0.96 65.7 0 0 430.72 251.12
  C 430.91 254.74 447.28 253.77 450.99 253.64
  Q 452.74 253.58 453.83 252.20
  C 454.34 251.55 453.07 250.25 452.31 249.84
  Q 447.30 247.13 444.76 240.51
  Q 435.93 217.44 427.58 194.18
  C 425.53 188.45 420.33 175.69 413.34 183.30"
/>
<path stroke="#f1f494" vector-effect="non-scaling-stroke" d="
  M 261.90 92.10
  C 255.48 84.26 246.70 85.65 245.04 96.67
  A 1.01 1.01 0.0 0 0 245.68 97.76
  Q 247.16 98.32 246.64 99.05
  A 0.80 0.79 -44.7 0 0 246.63 99.97
  Q 253.94 110.45 263.32 119.11
  A 1.00 1.00 0.0 0 0 264.68 119.11
  Q 270.71 113.52 275.76 107.51
  C 280.12 102.30 288.05 91.27 276.49 87.49
  C 271.55 85.87 268.89 89.26 265.77 92.24
  A 1.01 1.00 23.5 0 1 265.05 92.52
  L 262.65 92.46
  A 1.01 0.99 -18.9 0 1 261.90 92.10"
/>
<path stroke="#8099d0" vector-effect="non-scaling-stroke" d="
  M 317.18 187.70
  Q 316.82 188.47 316.81 189.32
  Q 316.67 215.88 316.50 242.81
  C 316.47 246.83 317.85 248.33 321.88 248.76
  C 336.76 250.38 347.32 244.67 351.30 229.83
  C 356.31 211.12 350.95 186.95 327.33 185.63
  C 324.47 185.47 318.40 185.11 317.18 187.70"
/>
<path stroke="#8099d0" vector-effect="non-scaling-stroke" d="
  M 415.09 194.79
  L 405.03 222.12
  A 1.00 1.00 0.0 0 0 405.89 223.46
  Q 415.55 224.20 425.18 223.40
  A 1.00 1.00 0.0 0 0 426.09 222.32
  Q 425.89 219.82 424.82 216.68
  Q 421.00 205.46 416.58 194.76
  Q 415.79 192.86 415.09 194.79"
/>
</g>
<path fill="#ffffff" d="
  M 0.00 0.00
  L 536.00 0.00
  L 536.00 307.00
  L 0.00 307.00
  L 0.00 0.00
  Z
  M 210.87 59.15
  C 215.23 54.46 208.99 49.35 205.22 53.20
  C 182.32 76.57 182.45 112.60 205.20 136.08
  Q 207.31 138.25 210.00 136.88
  C 213.65 135.04 212.68 132.07 210.38 129.50
  C 191.80 108.76 191.99 79.46 210.87 59.15
  Z
  M 315.34 56.75
  A 1.03 1.01 -63.9 0 0 315.61 57.56
  C 333.43 76.38 336.52 100.13 323.19 122.68
  Q 322.01 124.68 315.86 131.40
  A 1.02 0.99 -24.8 0 0 315.60 132.07
  C 315.55 137.76 320.34 138.79 323.71 135.15
  C 345.66 111.47 345.10 77.90 323.50 53.96
  Q 321.83 52.11 319.75 51.97
  Q 315.93 51.72 315.34 56.75
  Z
  M 302.93 63.45
  Q 301.68 65.50 303.27 67.31
  C 314.99 80.56 318.41 97.00 309.81 112.94
  C 308.01 116.28 305.08 119.57 302.67 122.85
  A 1.02 1.00 59.3 0 0 302.49 123.59
  C 303.35 129.58 307.78 129.03 311.02 125.45
  C 327.15 107.63 326.57 81.01 310.65 63.43
  C 308.15 60.67 305.15 59.81 302.93 63.45
  Z
  M 219.82 128.15
  A 1.03 1.01 61.3 0 0 220.65 128.40
  C 225.25 127.71 226.92 124.28 223.85 120.75
  C 211.91 107.03 209.90 89.96 219.32 74.33
  Q 220.25 72.80 225.04 66.96
  A 1.00 0.98 67.2 0 0 225.27 66.38
  C 225.56 60.42 220.74 59.66 217.40 63.36
  C 200.34 82.24 201.03 110.83 219.82 128.15
  Z
  M 236.93 77.24
  C 241.11 72.16 234.62 67.83 231.37 71.10
  C 218.64 83.91 218.69 102.93 230.04 116.64
  C 234.63 122.19 241.57 117.17 236.83 111.84
  C 227.43 101.27 228.12 87.94 236.93 77.24
  Z
  M 289.11 74.14
  A 1.01 1.00 -55.2 0 0 289.29 75.18
  Q 306.55 94.38 289.82 113.52
  A 0.98 0.95 -25.6 0 0 289.57 114.19
  Q 289.66 120.45 295.89 118.79
  A 0.97 0.97 0.0 0 0 296.38 118.50
  Q 304.18 109.88 306.41 98.45
  Q 306.45 98.21 306.38 97.97
  C 306.02 96.77 306.45 95.34 306.43 94.48
  Q 306.12 81.69 297.76 72.31
  C 294.47 68.62 291.01 69.34 289.11 74.14
  Z
  M 263.34 81.94
  C 250.74 72.18 231.87 86.05 238.06 100.68
  C 242.91 112.11 252.23 120.63 261.32 128.72
  Q 263.69 130.83 266.16 128.85
  C 274.71 122.00 292.64 105.32 290.84 93.14
  C 288.96 80.42 275.22 74.81 264.51 81.98
  A 1.00 1.00 0.0 0 1 263.34 81.94
  Z
  M 109.82 248.64
  C 96.45 248.17 89.90 239.97 87.16 227.49
  C 83.43 210.47 87.40 186.81 109.25 185.77
  C 118.73 185.32 124.77 191.76 129.50 199.07
  A 1.00 0.99 60.0 0 0 130.79 199.42
  C 135.30 197.13 134.06 186.19 130.95 183.45
  A 1.07 1.04 -19.1 0 0 130.44 183.21
  C 120.80 181.70 111.80 179.48 102.06 181.12
  C 78.31 185.13 69.76 210.96 76.15 231.82
  C 82.93 253.95 104.99 258.09 124.81 252.07
  C 130.50 250.34 133.17 246.82 134.20 241.20
  C 135.25 235.49 130.78 237.87 129.09 239.86
  C 123.79 246.07 117.48 248.90 109.82 248.64
  Z
  M 226.70 184.46
  C 227.61 179.35 210.82 181.22 208.05 181.62
  Q 206.14 181.90 207.46 183.30
  C 213.04 189.17 212.92 195.47 213.15 204.69
  Q 213.41 214.52 212.81 224.35
  C 212.08 236.51 209.65 247.55 196.08 248.56
  C 184.05 249.46 175.21 243.44 174.59 230.72
  Q 173.60 210.46 174.27 193.00
  C 174.41 189.28 175.80 186.88 178.56 184.56
  C 184.63 179.43 161.64 180.94 158.94 181.21
  C 155.14 181.60 154.50 184.09 158.00 185.80
  C 163.01 188.24 162.69 193.11 162.91 199.00
  C 163.31 210.11 163.01 221.19 163.61 232.34
  C 164.38 246.44 174.62 253.16 187.68 254.18
  C 194.18 254.69 201.75 254.81 207.49 251.23
  Q 218.58 244.29 218.87 230.99
  Q 219.26 212.90 219.56 194.81
  C 219.65 189.82 222.35 188.14 226.33 185.08
  A 1.04 1.03 76.1 0 0 226.70 184.46
  Z
  M 306.29 238.68
  C 306.23 242.61 306.74 246.89 302.58 249.07
  Q 300.62 250.10 299.25 251.35
  Q 297.81 252.67 299.72 253.07
  C 306.18 254.43 313.38 253.94 319.95 254.06
  Q 330.83 254.27 335.62 253.44
  C 352.88 250.47 364.18 237.05 365.04 219.42
  C 366.20 195.31 352.01 180.93 328.25 180.81
  Q 316.35 180.74 300.57 181.79
  Q 297.45 182.00 298.36 183.96
  C 299.05 185.42 301.60 186.06 302.86 186.60
  Q 305.13 187.57 305.50 190.01
  C 307.84 205.46 306.53 223.02 306.29 238.68
  Z
  M 248.94 184.56
  C 252.64 187.14 255.36 186.94 255.78 192.50
  Q 256.50 202.17 256.29 213.94
  C 256.14 222.04 256.39 235.33 255.10 246.09
  A 1.02 1.00 -15.6 0 1 254.71 246.77
  C 254.02 247.28 242.92 253.34 251.09 253.69
  Q 261.71 254.16 272.29 254.13
  Q 276.95 254.11 274.74 250.75
  A 1.06 1.04 79.9 0 0 274.15 250.33
  Q 267.86 248.71 267.78 241.77
  Q 267.44 215.43 267.87 198.75
  C 268.04 192.30 267.03 187.68 273.43 184.38
  C 274.79 183.68 275.95 182.01 273.53 181.42
  C 270.00 180.57 266.15 181.36 263.16 181.21
  C 262.69 181.19 242.63 180.17 248.94 184.56
  Z
  M 413.34 183.30
  Q 412.34 184.38 411.85 185.77
  C 409.65 191.98 407.81 198.56 405.34 204.56
  Q 398.07 222.20 391.12 239.97
  C 389.32 244.59 387.23 247.29 383.28 249.77
  Q 380.22 251.69 383.48 252.28
  Q 391.28 253.70 399.17 253.07
  Q 400.24 252.99 400.94 252.30
  A 1.01 1.01 0.0 0 0 400.98 250.92
  L 398.65 248.32
  Q 396.59 246.02 397.35 243.09
  Q 398.77 237.55 401.38 232.49
  C 403.04 229.29 404.35 228.97 407.75 228.82
  C 415.24 228.51 426.83 226.59 429.82 232.93
  Q 432.73 239.11 434.02 244.84
  A 1.12 1.10 48.8 0 1 433.99 245.37
  Q 433.09 248.21 431.00 250.37
  A 0.97 0.96 65.7 0 0 430.72 251.12
  C 430.91 254.74 447.28 253.77 450.99 253.64
  Q 452.74 253.58 453.83 252.20
  C 454.34 251.55 453.07 250.25 452.31 249.84
  Q 447.30 247.13 444.76 240.51
  Q 435.93 217.44 427.58 194.18
  C 425.53 188.45 420.33 175.69 413.34 183.30
  Z"
/>
<path fill="#e3e829" d="
  M 205.22 53.20
  C 208.99 49.35 215.23 54.46 210.87 59.15
  C 191.99 79.46 191.80 108.76 210.38 129.50
  C 212.68 132.07 213.65 135.04 210.00 136.88
  Q 207.31 138.25 205.20 136.08
  C 182.45 112.60 182.32 76.57 205.22 53.20
  Z"
/>
<path fill="#e3e829" d="
  M 315.34 56.75
  Q 315.93 51.72 319.75 51.97
  Q 321.83 52.11 323.50 53.96
  C 345.10 77.90 345.66 111.47 323.71 135.15
  C 320.34 138.79 315.55 137.76 315.60 132.07
  A 1.02 0.99 -24.8 0 1 315.86 131.40
  Q 322.01 124.68 323.19 122.68
  C 336.52 100.13 333.43 76.38 315.61 57.56
  A 1.03 1.01 -63.9 0 1 315.34 56.75
  Z"
/>
<path fill="#e3e829" d="
  M 302.93 63.45
  C 305.15 59.81 308.15 60.67 310.65 63.43
  C 326.57 81.01 327.15 107.63 311.02 125.45
  C 307.78 129.03 303.35 129.58 302.49 123.59
  A 1.02 1.00 59.3 0 1 302.67 122.85
  C 305.08 119.57 308.01 116.28 309.81 112.94
  C 318.41 97.00 314.99 80.56 303.27 67.31
  Q 301.68 65.50 302.93 63.45
  Z"
/>
<path fill="#e3e829" d="
  M 219.82 128.15
  C 201.03 110.83 200.34 82.24 217.40 63.36
  C 220.74 59.66 225.56 60.42 225.27 66.38
  A 1.00 0.98 67.2 0 1 225.04 66.96
  Q 220.25 72.80 219.32 74.33
  C 209.90 89.96 211.91 107.03 223.85 120.75
  C 226.92 124.28 225.25 127.71 220.65 128.40
  A 1.03 1.01 61.3 0 1 219.82 128.15
  Z"
/>
<path fill="#e3e829" d="
  M 231.37 71.10
  C 234.62 67.83 241.11 72.16 236.93 77.24
  C 228.12 87.94 227.43 101.27 236.83 111.84
  C 241.57 117.17 234.63 122.19 230.04 116.64
  C 218.69 102.93 218.64 83.91 231.37 71.10
  Z"
/>
<path fill="#e3e829" d="
  M 289.11 74.14
  C 291.01 69.34 294.47 68.62 297.76 72.31
  Q 306.12 81.69 306.43 94.48
  C 306.45 95.34 306.02 96.77 306.38 97.97
  Q 306.45 98.21 306.41 98.45
  Q 304.18 109.88 296.38 118.50
  A 0.97 0.97 0.0 0 1 295.89 118.79
  Q 289.66 120.45 289.57 114.19
  A 0.98 0.95 -25.6 0 1 289.82 113.52
  Q 306.55 94.38 289.29 75.18
  A 1.01 1.00 -55.2 0 1 289.11 74.14
  Z"
/>
<path fill="#e3e829" d="
  M 238.06 100.68
  C 231.87 86.05 250.74 72.18 263.34 81.94
  A 1.00 1.00 0.0 0 0 264.51 81.98
  C 275.22 74.81 288.96 80.42 290.84 93.14
  C 292.64 105.32 274.71 122.00 266.16 128.85
  Q 263.69 130.83 261.32 128.72
  C 252.23 120.63 242.91 112.11 238.06 100.68
  Z
  M 261.90 92.10
  C 255.48 84.26 246.70 85.65 245.04 96.67
  A 1.01 1.01 0.0 0 0 245.68 97.76
  Q 247.16 98.32 246.64 99.05
  A 0.80 0.79 -44.7 0 0 246.63 99.97
  Q 253.94 110.45 263.32 119.11
  A 1.00 1.00 0.0 0 0 264.68 119.11
  Q 270.71 113.52 275.76 107.51
  C 280.12 102.30 288.05 91.27 276.49 87.49
  C 271.55 85.87 268.89 89.26 265.77 92.24
  A 1.01 1.00 23.5 0 1 265.05 92.52
  L 262.65 92.46
  A 1.01 0.99 -18.9 0 1 261.90 92.10
  Z"
/>
<path fill="#ffffff" d="
  M 245.04 96.67
  C 246.70 85.65 255.48 84.26 261.90 92.10
  A 1.01 0.99 -18.9 0 0 262.65 92.46
  L 265.05 92.52
  A 1.01 1.00 23.5 0 0 265.77 92.24
  C 268.89 89.26 271.55 85.87 276.49 87.49
  C 288.05 91.27 280.12 102.30 275.76 107.51
  Q 270.71 113.52 264.68 119.11
  A 1.00 1.00 0.0 0 1 263.32 119.11
  Q 253.94 110.45 246.63 99.97
  A 0.80 0.79 -44.7 0 1 246.64 99.05
  Q 247.16 98.32 245.68 97.76
  A 1.01 1.01 0.0 0 1 245.04 96.67
  Z"
/>
<path fill="#0033a0" d="
  M 109.82 248.64
  C 117.48 248.90 123.79 246.07 129.09 239.86
  C 130.78 237.87 135.25 235.49 134.20 241.20
  C 133.17 246.82 130.50 250.34 124.81 252.07
  C 104.99 258.09 82.93 253.95 76.15 231.82
  C 69.76 210.96 78.31 185.13 102.06 181.12
  C 111.80 179.48 120.80 181.70 130.44 183.21
  A 1.07 1.04 -19.1 0 1 130.95 183.45
  C 134.06 186.19 135.30 197.13 130.79 199.42
  A 1.00 0.99 60.0 0 1 129.50 199.07
  C 124.77 191.76 118.73 185.32 109.25 185.77
  C 87.40 186.81 83.43 210.47 87.16 227.49
  C 89.90 239.97 96.45 248.17 109.82 248.64
  Z"
/>
<path fill="#0033a0" d="
  M 208.05 181.62
  C 210.82 181.22 227.61 179.35 226.70 184.46
  A 1.04 1.03 76.1 0 1 226.33 185.08
  C 222.35 188.14 219.65 189.82 219.56 194.81
  Q 219.26 212.90 218.87 230.99
  Q 218.58 244.29 207.49 251.23
  C 201.75 254.81 194.18 254.69 187.68 254.18
  C 174.62 253.16 164.38 246.44 163.61 232.34
  C 163.01 221.19 163.31 210.11 162.91 199.00
  C 162.69 193.11 163.01 188.24 158.00 185.80
  C 154.50 184.09 155.14 181.60 158.94 181.21
  C 161.64 180.94 184.63 179.43 178.56 184.56
  C 175.80 186.88 174.41 189.28 174.27 193.00
  Q 173.60 210.46 174.59 230.72
  C 175.21 243.44 184.05 249.46 196.08 248.56
  C 209.65 247.55 212.08 236.51 212.81 224.35
  Q 213.41 214.52 213.15 204.69
  C 212.92 195.47 213.04 189.17 207.46 183.30
  Q 206.14 181.90 208.05 181.62
  Z"
/>
<path fill="#0033a0" d="
  M 306.29 238.68
  C 306.53 223.02 307.84 205.46 305.50 190.01
  Q 305.13 187.57 302.86 186.60
  C 301.60 186.06 299.05 185.42 298.36 183.96
  Q 297.45 182.00 300.57 181.79
  Q 316.35 180.74 328.25 180.81
  C 352.01 180.93 366.20 195.31 365.04 219.42
  C 364.18 237.05 352.88 250.47 335.62 253.44
  Q 330.83 254.27 319.95 254.06
  C 313.38 253.94 306.18 254.43 299.72 253.07
  Q 297.81 252.67 299.25 251.35
  Q 300.62 250.10 302.58 249.07
  C 306.74 246.89 306.23 242.61 306.29 238.68
  Z
  M 317.18 187.70
  Q 316.82 188.47 316.81 189.32
  Q 316.67 215.88 316.50 242.81
  C 316.47 246.83 317.85 248.33 321.88 248.76
  C 336.76 250.38 347.32 244.67 351.30 229.83
  C 356.31 211.12 350.95 186.95 327.33 185.63
  C 324.47 185.47 318.40 185.11 317.18 187.70
  Z"
/>
<path fill="#0033a0" d="
  M 248.94 184.56
  C 242.63 180.17 262.69 181.19 263.16 181.21
  C 266.15 181.36 270.00 180.57 273.53 181.42
  C 275.95 182.01 274.79 183.68 273.43 184.38
  C 267.03 187.68 268.04 192.30 267.87 198.75
  Q 267.44 215.43 267.78 241.77
  Q 267.86 248.71 274.15 250.33
  A 1.06 1.04 79.9 0 1 274.74 250.75
  Q 276.95 254.11 272.29 254.13
  Q 261.71 254.16 251.09 253.69
  C 242.92 253.34 254.02 247.28 254.71 246.77
  A 1.02 1.00 -15.6 0 0 255.10 246.09
  C 256.39 235.33 256.14 222.04 256.29 213.94
  Q 256.50 202.17 255.78 192.50
  C 255.36 186.94 252.64 187.14 248.94 184.56
  Z"
/>
<path fill="#0033a0" d="
  M 413.34 183.30
  C 420.33 175.69 425.53 188.45 427.58 194.18
  Q 435.93 217.44 444.76 240.51
  Q 447.30 247.13 452.31 249.84
  C 453.07 250.25 454.34 251.55 453.83 252.20
  Q 452.74 253.58 450.99 253.64
  C 447.28 253.77 430.91 254.74 430.72 251.12
  A 0.97 0.96 65.7 0 1 431.00 250.37
  Q 433.09 248.21 433.99 245.37
  A 1.12 1.10 48.8 0 0 434.02 244.84
  Q 432.73 239.11 429.82 232.93
  C 426.83 226.59 415.24 228.51 407.75 228.82
  C 404.35 228.97 403.04 229.29 401.38 232.49
  Q 398.77 237.55 397.35 243.09
  Q 396.59 246.02 398.65 248.32
  L 400.98 250.92
  A 1.01 1.01 0.0 0 1 400.94 252.30
  Q 400.24 252.99 399.17 253.07
  Q 391.28 253.70 383.48 252.28
  Q 380.22 251.69 383.28 249.77
  C 387.23 247.29 389.32 244.59 391.12 239.97
  Q 398.07 222.20 405.34 204.56
  C 407.81 198.56 409.65 191.98 411.85 185.77
  Q 412.34 184.38 413.34 183.30
  Z
  M 415.09 194.79
  L 405.03 222.12
  A 1.00 1.00 0.0 0 0 405.89 223.46
  Q 415.55 224.20 425.18 223.40
  A 1.00 1.00 0.0 0 0 426.09 222.32
  Q 425.89 219.82 424.82 216.68
  Q 421.00 205.46 416.58 194.76
  Q 415.79 192.86 415.09 194.79
  Z"
/>
<path fill="#ffffff" d="
  M 317.18 187.70
  C 318.40 185.11 324.47 185.47 327.33 185.63
  C 350.95 186.95 356.31 211.12 351.30 229.83
  C 347.32 244.67 336.76 250.38 321.88 248.76
  C 317.85 248.33 316.47 246.83 316.50 242.81
  Q 316.67 215.88 316.81 189.32
  Q 316.82 188.47 317.18 187.70
  Z"
/>
<path fill="#ffffff" d="
  M 415.09 194.79
  Q 415.79 192.86 416.58 194.76
  Q 421.00 205.46 424.82 216.68
  Q 425.89 219.82 426.09 222.32
  A 1.00 1.00 0.0 0 1 425.18 223.40
  Q 415.55 224.20 405.89 223.46
  A 1.00 1.00 0.0 0 1 405.03 222.12
  L 415.09 194.79
  Z"
/>
</svg>
